# xmcd CD database file
#
# Track frame offsets:
#	151
#	32110
#	70391
#	99056
#	131603
#	167384
#	191457
#	219690
#
# Disc length: 3258 seconds
#
# Revision: 0
# Processed by: cddbd v1.5.1PL2 Copyright (c) Steve Scherf et al.
# Submitted via: CDex 1.50
#
DISCID=670cb808
DTITLE=Andreas Prittwitz - La Danza del Delfín
DYEAR=1900
DGENRE=New Age
TTITLE0=El Delfín y el Hombre
TTITLE1=Agua de Caribe
TTITLE2=El Canto del Delfín
TTITLE3=Navegando
TTITLE4=Alta Mar
TTITLE5=El Juego
TTITLE6=Entre Algas
TTITLE7=La Familia
EXTD=
EXTT0=
EXTT1=
EXTT2=
EXTT3=
EXTT4=
EXTT5=
EXTT6=
EXTT7=
PLAYORDER=
